<?xml version="1.0" encoding="UTF-8"?><svg id="a" xmlns="http://www.w3.org/2000/svg" viewBox="0 0 929.864 233.716"><path d="M155.267,82.309c2.127-1.57,5.234-2.355,9.32-2.355v8.611c-1.755-.135-3.292-.202-4.608-.202-3.648,0-6.654.371-9.016,1.113.743-3.208,2.178-5.597,4.305-7.167M141.54,108.168h-7.396v-6.23h7.396c.034-3.343.869-6.036,2.507-8.08,1.638-2.044,3.943-3.503,6.915-4.382-.406,2.162-.608,4.695-.608,7.598v4.864h13.878v6.23h-13.878v45.64h-8.814v-45.64Z" fill="#2a2c52"/><rect x="64.181" y="85.367" width="10.114" height="68.415" fill="#2a2c52"/><path d="M128.856,118.782v35.001h-9.618v-30.739c0-3.502-.877-6.211-2.627-8.128-1.752-1.918-4.281-2.876-7.586-2.876-4.495,0-8.113,1.817-10.858,5.454-2.741,3.635-4.114,9.717-4.114,18.241v18.047h-9.615v-49.575h7.732l1.389,12.889h1.883c1.521-4.692,3.734-8.213,6.644-10.56,2.908-2.345,6.708-3.519,11.4-3.519,4.562,0,8.264,1.388,11.105,4.164,2.844,2.775,4.265,6.644,4.265,11.601" fill="#2a2c52"/><path d="M239.519,104.207v49.575h-7.735l-.89-13.088h-1.885c-1.453,4.361-3.603,7.833-6.444,10.41-2.844,2.576-6.411,3.866-10.709,3.866-4.891,0-8.842-1.388-11.849-4.163-3.008-2.778-4.511-6.644-4.511-11.601v-35.001h9.618v32.025c0,3.372.874,5.983,2.627,7.833,1.752,1.851,4.146,2.777,7.188,2.777,2.908,0,5.504-1.043,7.783-3.123,2.281-2.084,4.049-4.976,5.305-8.675,1.256-3.702,1.883-7.833,1.883-12.396v-18.44h9.618Z" fill="#2a2c52"/><path d="M255.033,125.621h26.87c-.133-4.692-1.29-8.36-3.471-11.004-2.18-2.643-5.321-3.967-9.419-3.967-3.701,0-6.808,1.306-9.32,3.917-2.512,2.611-4.066,6.296-4.66,11.054M291.322,127.902c0,2.05-.066,3.603-.199,4.661h-36.189c.464,4.626,1.984,8.197,4.562,10.709,2.578,2.51,5.848,3.766,9.815,3.766,3.502,0,6.346-.727,8.527-2.182,2.182-1.453,3.834-3.569,4.957-6.344l7.337,2.379c-1.189,4.363-3.619,7.799-7.287,10.311-3.668,2.514-8.378,3.768-14.13,3.768-7.6,0-13.466-2.198-17.598-6.594-4.13-4.394-6.195-10.492-6.195-18.293,0-5.287.958-9.963,2.873-14.029,1.917-4.065,4.711-7.255,8.38-9.568,3.668-2.313,7.98-3.47,12.938-3.47,6.809,0,12.212,2.215,16.212,6.644,3.999,4.427,5.998,10.51,5.998,18.241" fill="#2a2c52"/><path d="M406.697,125.621h26.87c-.133-4.692-1.29-8.36-3.471-11.004-2.18-2.643-5.321-3.967-9.419-3.967-3.702,0-6.808,1.306-9.32,3.917-2.512,2.611-4.066,6.296-4.66,11.054M442.986,127.902c0,2.05-.066,3.603-.199,4.661h-36.189c.464,4.626,1.984,8.197,4.562,10.709,2.578,2.51,5.848,3.766,9.815,3.766,3.502,0,6.346-.727,8.527-2.182,2.182-1.453,3.834-3.569,4.957-6.344l7.339,2.379c-1.19,4.363-3.62,7.799-7.289,10.311-3.668,2.514-8.378,3.768-14.129,3.768-7.602,0-13.468-2.198-17.6-6.594-4.13-4.394-6.195-10.492-6.195-18.293,0-5.287.958-9.963,2.873-14.029,1.917-4.065,4.711-7.255,8.38-9.568s7.98-3.47,12.938-3.47c6.809,0,12.212,2.215,16.212,6.644,3.999,4.427,5.998,10.51,5.998,18.241" fill="#2a2c52"/><path d="M341.368,118.782v35.001h-9.618v-30.739c0-3.502-.877-6.211-2.627-8.128-1.752-1.918-4.281-2.876-7.586-2.876-4.495,0-8.113,1.817-10.858,5.454-2.741,3.635-4.114,9.717-4.114,18.241v18.047h-9.615v-49.575h7.732l1.389,12.889h1.883c1.521-4.692,3.734-8.213,6.644-10.56,2.908-2.345,6.708-3.519,11.4-3.519,4.562,0,8.264,1.388,11.105,4.164,2.844,2.775,4.265,6.644,4.265,11.601" fill="#2a2c52"/><path d="M346.371,128.993c0-5.553,1.055-10.277,3.171-14.178,2.116-3.899,5.042-6.841,8.776-8.824,3.734-1.984,7.948-2.974,12.642-2.974,5.751,0,10.377,1.173,13.882,3.519,3.502,2.347,5.585,5.768,6.245,10.263l-7.534,2.379c-1.124-5.685-5.223-8.527-12.295-8.527-4.361,0-7.932,1.586-10.707,4.759-2.777,3.173-4.166,7.735-4.166,13.684,0,5.617,1.355,9.995,4.065,13.136,2.712,3.139,6.346,4.71,10.908,4.71,3.041,0,5.669-.728,7.882-2.18,2.215-1.455,3.883-3.537,5.006-6.248l7.339,2.379c-1.19,4.365-3.571,7.801-7.138,10.312-3.571,2.512-8.131,3.768-13.684,3.768-7.403,0-13.32-2.182-17.749-6.545-4.427-4.361-6.641-10.84-6.641-19.433" fill="#2a2c52"/><rect x="175.14" y="85.367" width="9.616" height="68.415" fill="#2a2c52"/><path d="M500.432,127.289l-4.235-13.099c-.853-2.56-1.74-5.743-2.66-9.552-.919-3.806-1.476-7.188-1.675-10.142h-5.906c-.197,2.889-.757,6.221-1.675,9.995-.921,3.774-1.838,7.008-2.757,9.7l-4.235,13.099h23.142ZM509.097,153.875l-6.007-18.413h-28.458l-6.007,18.413h-10.537l23.042-67.945h15.855l23.142,67.945h-11.03Z" fill="#ee7d4f"/><path d="M518.933,129.258c0-5.515,1.049-10.21,3.15-14.082,2.101-3.874,5.006-6.793,8.715-8.765,3.71-1.968,7.894-2.953,12.557-2.953,5.71,0,10.304,1.165,13.785,3.495,3.478,2.331,5.547,5.728,6.203,10.192l-7.485,2.364c-1.116-5.648-5.186-8.469-12.21-8.469-4.331,0-7.878,1.575-10.633,4.726-2.759,3.152-4.138,7.682-4.138,13.59,0,5.581,1.347,9.929,4.037,13.047,2.693,3.12,6.302,4.677,10.834,4.677,3.02,0,5.629-.722,7.828-2.167,2.199-1.444,3.856-3.51,4.973-6.203l7.287,2.364c-1.181,4.331-3.545,7.746-7.09,10.239-3.545,2.496-8.075,3.742-13.59,3.742-7.353,0-13.229-2.164-17.627-6.498-4.397-4.333-6.596-10.766-6.596-19.3" fill="#ee7d4f"/><path d="M592.525,131.226c-5.252,0-9.305.738-12.162,2.215-2.855,1.477-4.283,3.726-4.283,6.745,0,2.101.739,3.776,2.217,5.024,1.477,1.246,3.527,1.87,6.153,1.87,9.584,0,14.969-5.12,16.15-15.362-3.282-.327-5.974-.492-8.075-.492M615.567,154.269c-1.379.526-2.692.788-3.94.788-2.887,0-5.136-.82-6.745-2.461-1.607-1.643-2.411-4.135-2.411-7.483,0-1.445.13-2.857.393-4.236h-1.968c-1.116,4.859-3.088,8.436-5.909,10.734-2.823,2.297-6.663,3.446-11.52,3.446-5.385,0-9.618-1.36-12.704-4.087-3.085-2.724-4.628-6.251-4.628-10.584,0-5.385,2.183-9.438,6.548-12.162,4.365-2.724,10.16-4.087,17.38-4.087,3.415,0,6.992.297,10.733.885v-4.036c0-6.63-3.97-9.945-11.915-9.945-3.543,0-6.318.804-8.319,2.411-2.003,1.61-3.433,4.021-4.284,7.239l-7.78-2.364c.656-4.726,2.921-8.386,6.793-10.978,3.875-2.594,8.83-3.891,14.871-3.891,6.171,0,11.076,1.477,14.72,4.432,3.644,2.953,5.465,7.122,5.465,12.507v20.777c0,2.034.281,3.627.837,4.775.558,1.148,1.396,1.724,2.512,1.724.788,0,1.707-.329,2.757-.985l2.265,5.908c-.722.59-1.773,1.148-3.152,1.673" fill="#ee7d4f"/><path d="M655.857,128.766c-.13-5.122-1.558-9.356-4.281-12.704-2.727-3.349-6.254-5.022-10.587-5.022-4.4,0-7.943,1.657-10.636,4.973-2.692,3.316-4.037,7.828-4.037,13.541,0,5.515,1.298,9.796,3.891,12.849,2.592,3.054,6.253,4.581,10.98,4.581,4.397,0,7.943-1.627,10.633-4.876,2.693-3.248,4.037-7.696,4.037-13.341M667.478,84.452v69.422h-7.682l-1.28-12.998h-1.872c-2.493,9.454-8.368,14.18-17.625,14.18-4.333,0-8.222-.983-11.67-2.955-3.446-1.968-6.137-4.857-8.075-8.665-1.936-3.806-2.903-8.436-2.903-13.883,0-5.515,1.031-10.242,3.101-14.181,2.069-3.938,4.825-6.909,8.271-8.912,3.449-2.002,7.141-3.003,11.079-3.003,9.389,0,15.33,4.661,17.823,13.983h1.971c0-.656-.067-2.56-.197-5.71-.329-5.778-.492-10.045-.492-12.802v-14.475h9.552Z" fill="#ee7d4f"/><path d="M682.885,125.91h26.685c-.132-4.661-1.28-8.306-3.447-10.932-2.165-2.626-5.284-3.938-9.355-3.938-3.677,0-6.761,1.296-9.255,3.89-2.496,2.592-4.039,6.253-4.628,10.98M718.925,128.174c0,2.034-.066,3.579-.197,4.628h-35.942c.46,4.596,1.97,8.139,4.53,10.635,2.562,2.496,5.81,3.742,9.748,3.742,3.479,0,6.302-.723,8.469-2.167,2.167-1.445,3.808-3.543,4.923-6.302l7.287,2.364c-1.181,4.331-3.595,7.748-7.238,10.24-3.644,2.494-8.32,3.742-14.032,3.742-7.549,0-13.376-2.182-17.479-6.548-4.102-4.366-6.153-10.422-6.153-18.168,0-5.252.951-9.897,2.855-13.934,1.902-4.039,4.677-7.205,8.322-9.502,3.643-2.299,7.926-3.447,12.848-3.447,6.763,0,12.13,2.199,16.102,6.597,3.972,4.398,5.957,10.438,5.957,18.119" fill="#ee7d4f"/><path d="M801.224,119.114v34.762h-9.552v-30.92c0-3.282-.839-5.86-2.512-7.73-1.675-1.872-4.119-2.807-7.335-2.807-4.333,0-7.78,2.02-10.34,6.057-2.562,4.037-3.84,10.125-3.84,18.265v17.135h-9.552v-30.92c0-3.282-.853-5.86-2.56-7.73-1.707-1.872-4.201-2.807-7.485-2.807-9.321,0-13.983,7.845-13.983,23.535v17.922h-9.551v-49.237h7.679l1.282,12.802h1.968c1.511-4.53,3.531-7.993,6.055-10.389,2.528-2.396,5.828-3.593,9.897-3.593,4.53,0,8.109,1.197,10.734,3.593,2.626,2.396,4.07,5.86,4.333,10.389h2.068c2.889-9.321,8.436-13.983,16.642-13.983,4.793,0,8.667,1.378,11.621,4.135,2.953,2.757,4.43,6.597,4.43,11.52" fill="#ee7d4f"/><path d="M850.467,104.638l-18.217,49.237c-2.756,7.024-5.547,11.817-8.37,14.377-2.823,2.56-6.137,3.84-9.945,3.84-2.364,0-4.531-.427-6.5-1.28-1.968-.852-3.511-1.772-4.628-2.757l4.432-7.188c2.558,1.838,4.955,2.757,7.188,2.757,2.494,0,4.743-.919,6.745-2.757,2.003-1.838,3.396-4.169,4.183-6.992h-5.021l-18.119-49.237h10.734l8.271,25.602c1.051,3.415,1.92,6.354,2.61,8.814.69,2.462,1.298,5.104,1.822,7.927h1.773c.658-3.611,1.87-8.468,3.644-14.574.13-.329.361-1.049.688-2.167l8.37-25.602h10.34Z" fill="#ee7d4f"/></svg>