<?xml version="1.0" encoding="UTF-8"?><svg id="a" xmlns="http://www.w3.org/2000/svg" viewBox="0 0 841.89 233.716"><path d="M174.253,81.606c2.113-1.559,5.198-2.338,9.256-2.338v8.552c-1.744-.134-3.27-.201-4.578-.201-3.623,0-6.606.369-8.954,1.107.738-3.187,2.163-5.559,4.276-7.119M160.62,107.287h-7.344v-6.188h7.344c.034-3.319.864-5.995,2.49-8.023,1.626-2.029,3.915-3.479,6.867-4.351-.403,2.145-.604,4.661-.604,7.546v4.829h13.783v6.188h-13.783v45.325h-8.753v-45.325Z" fill="#fff"/><rect x="83.794" y="84.643" width="10.042" height="67.943" fill="#fff"/><path d="M148.024,117.828v34.759h-9.552v-30.526c0-3.477-.871-6.169-2.608-8.073-1.741-1.904-4.252-2.856-7.534-2.856-4.463,0-8.057,1.807-10.782,5.416-2.723,3.61-4.086,9.649-4.086,18.117v17.922h-9.55v-49.234h7.68l1.378,12.801h1.87c1.509-4.661,3.709-8.157,6.598-10.486,2.888-2.33,6.662-3.495,11.322-3.495,4.532,0,8.207,1.377,11.029,4.135,2.822,2.755,4.234,6.597,4.234,11.52" fill="#fff"/><path d="M257.924,103.354v49.234h-7.681l-.885-12.997h-1.87c-1.444,4.33-3.578,7.779-6.4,10.338-2.822,2.559-6.367,3.84-10.635,3.84-4.857,0-8.78-1.378-11.767-4.135-2.985-2.759-4.479-6.597-4.479-11.52v-34.759h9.552v31.804c0,3.348.869,5.942,2.608,7.779,1.739,1.838,4.119,2.757,7.138,2.757,2.888,0,5.466-1.035,7.729-3.1,2.265-2.069,4.022-4.942,5.268-8.616,1.249-3.677,1.87-7.779,1.87-12.31v-18.313h9.552Z" fill="#fff"/><path d="M273.33,124.621h26.685c-.133-4.659-1.281-8.303-3.447-10.929-2.166-2.626-5.284-3.939-9.354-3.939-3.677,0-6.761,1.297-9.256,3.889-2.495,2.594-4.038,6.253-4.627,10.978M309.369,126.886c0,2.037-.065,3.578-.198,4.629h-35.939c.46,4.594,1.971,8.14,4.53,10.635,2.56,2.493,5.809,3.741,9.748,3.741,3.479,0,6.301-.722,8.467-2.166,2.168-1.444,3.808-3.546,4.923-6.301l7.287,2.362c-1.18,4.332-3.594,7.745-7.237,10.24-3.643,2.495-8.319,3.741-14.032,3.741-7.547,0-13.374-2.182-17.476-6.547-4.103-4.364-6.153-10.421-6.153-18.168,0-5.25.95-9.894,2.854-13.932,1.902-4.036,4.677-7.205,8.32-9.502,3.643-2.297,7.926-3.445,12.849-3.445,6.763,0,12.128,2.199,16.101,6.597,3.971,4.397,5.956,10.438,5.956,18.117" fill="#fff"/><path d="M423.949,124.621h26.685c-.133-4.659-1.281-8.303-3.447-10.929-2.166-2.626-5.284-3.939-9.354-3.939-3.677,0-6.761,1.297-9.256,3.889-2.495,2.594-4.038,6.253-4.627,10.978M459.987,126.886c0,2.037-.065,3.578-.198,4.629h-35.939c.46,4.594,1.971,8.14,4.53,10.635,2.56,2.493,5.809,3.741,9.748,3.741,3.479,0,6.301-.722,8.467-2.166,2.168-1.444,3.808-3.546,4.923-6.301l7.289,2.362c-1.182,4.332-3.596,7.745-7.239,10.24-3.643,2.495-8.319,3.741-14.031,3.741-7.549,0-13.376-2.182-17.478-6.547-4.103-4.364-6.153-10.421-6.153-18.168,0-5.25.95-9.894,2.854-13.932,1.902-4.036,4.677-7.205,8.32-9.502,3.643-2.297,7.926-3.445,12.849-3.445,6.763,0,12.128,2.199,16.101,6.597,3.971,4.397,5.956,10.438,5.956,18.117" fill="#fff"/><path d="M359.07,117.828v34.759h-9.552v-30.526c0-3.477-.871-6.169-2.608-8.073-1.741-1.904-4.252-2.856-7.534-2.856-4.463,0-8.057,1.807-10.782,5.416-2.723,3.61-4.086,9.649-4.086,18.117v17.922h-9.55v-49.234h7.68l1.378,12.801h1.87c1.509-4.661,3.709-8.157,6.598-10.486,2.888-2.33,6.662-3.495,11.322-3.495,4.532,0,8.207,1.377,11.029,4.135,2.822,2.755,4.234,6.597,4.234,11.52" fill="#fff"/><path d="M364.038,127.969c0-5.514,1.049-10.207,3.15-14.08,2.1-3.872,5.006-6.793,8.715-8.763,3.709-1.971,7.894-2.953,12.555-2.953,5.71,0,10.304,1.164,13.785,3.495,3.479,2.329,5.547,5.728,6.202,10.191l-7.483,2.362c-1.116-5.643-5.186-8.467-12.21-8.467-4.332,0-7.876,1.575-10.633,4.726-2.759,3.15-4.137,7.681-4.137,13.588,0,5.581,1.347,9.927,4.038,13.047,2.693,3.118,6.301,4.677,10.831,4.677,3.021,0,5.629-.722,7.828-2.166,2.199-1.444,3.856-3.512,4.972-6.204l7.287,2.364c-1.182,4.332-3.546,7.745-7.089,10.24-3.546,2.495-8.076,3.741-13.59,3.741-7.352,0-13.227-2.166-17.626-6.499-4.396-4.33-6.595-10.764-6.595-19.299" fill="#fff"/><rect x="193.987" y="84.644" width="9.55" height="67.943" fill="#fff"/><path d="M481.081,131.564l8.266-3.933c1.008,5.712,3.343,10.149,7.007,13.307,3.664,3.159,8.181,4.739,13.56,4.739,5.108,0,9.175-1.041,12.199-3.124,3.025-2.084,4.538-5.009,4.538-8.772,0-2.89-.824-5.124-2.471-6.704-1.647-1.578-3.814-2.722-6.503-3.428-2.688-.706-6.352-1.327-10.989-1.866-7.528-.941-13.593-2.806-18.198-5.595-4.603-2.789-6.905-7.341-6.905-13.66,0-4.032,1.059-7.544,3.175-10.536,2.118-2.99,5.142-5.309,9.074-6.956,3.933-1.645,8.52-2.468,13.761-2.468,17.005,0,26.178,7.122,27.523,21.372l-8.268,2.521c-.872-5.175-2.722-9.057-5.544-11.644s-7.394-3.881-13.711-3.881c-4.637,0-8.435.907-11.394,2.722-2.955,1.816-4.434,4.369-4.434,7.662,0,2.688.907,4.806,2.722,6.352,1.815,1.545,4.134,2.671,6.956,3.377,2.824.704,6.384,1.326,10.686,1.866,4.976.671,9.192,1.612,12.654,2.821,3.461,1.211,6.316,3.175,8.568,5.897,2.252,2.723,3.378,6.471,3.378,11.242,0,4.37-1.16,8.185-3.479,11.443-2.318,3.26-5.477,5.763-9.477,7.511-3.998,1.749-8.485,2.621-13.457,2.621-7.664,0-14.166-2.016-19.509-6.049-5.343-4.033-8.586-9.645-9.728-16.836" fill="#ee7d4f"/><path d="M571.366,151.676c-2.755,1.848-6.217,2.771-10.384,2.771-4.972,0-8.737-1.158-11.291-3.477-2.554-2.319-3.83-5.562-3.83-9.729v-30.649h-6.353v-7.761h7.258l2.925-14.719h5.948v14.719h19.257v7.761h-19.257v28.734c0,4.57,2.42,6.856,7.26,6.856,2.217,0,4.166-.69,5.846-2.067,1.68-1.378,3.26-3.041,4.739-4.99l4.434,5.747c-1.612,2.688-3.797,4.956-6.552,6.805" fill="#ee7d4f"/><path d="M625.508,102.83v50.409h-7.864l-.907-13.309h-1.915c-1.479,4.434-3.664,7.964-6.552,10.585-2.891,2.62-6.52,3.933-10.889,3.933-4.974,0-8.991-1.412-12.048-4.234-3.057-2.824-4.587-6.755-4.587-11.794v-35.59h9.78v32.564c0,3.428.89,6.083,2.671,7.964,1.783,1.882,4.218,2.822,7.309,2.822,2.958,0,5.595-1.059,7.915-3.175,2.318-2.118,4.116-5.059,5.393-8.82,1.279-3.765,1.917-7.964,1.917-12.604v-18.751h9.779Z" fill="#ee7d4f"/><path d="M671.426,127.53c-.133-5.242-1.596-9.577-4.385-13.005-2.789-3.428-6.402-5.142-10.838-5.142-4.503,0-8.132,1.698-10.889,5.092-2.755,3.394-4.134,8.015-4.134,13.861,0,5.645,1.329,10.031,3.984,13.157,2.655,3.124,6.402,4.686,11.242,4.686,4.501,0,8.132-1.663,10.887-4.99,2.757-3.327,4.132-7.881,4.132-13.66M683.324,82.162v71.077h-7.865l-1.311-13.307h-1.915c-2.552,9.676-8.568,14.516-18.045,14.516-4.436,0-8.418-1.008-11.948-3.024-3.528-2.016-6.284-4.974-8.268-8.871-1.982-3.901-2.973-8.638-2.973-14.216,0-5.646,1.057-10.485,3.175-14.518,2.118-4.033,4.94-7.074,8.467-9.124,3.53-2.051,7.311-3.075,11.342-3.075,9.613,0,15.695,4.771,18.248,14.315h2.017c0-.671-.069-2.62-.201-5.846-.337-5.915-.505-10.283-.505-13.106v-14.821h9.78Z" fill="#ee7d4f"/><path d="M692.182,102.83h9.777v50.409h-9.777v-50.409ZM690.67,87.305c0-1.815.537-3.327,1.612-4.536,1.077-1.209,2.69-1.816,4.84-1.816,2.083,0,3.679.607,4.789,1.816,1.109,1.209,1.664,2.722,1.664,4.536,0,1.949-.538,3.528-1.615,4.739-1.073,1.209-2.688,1.813-4.838,1.813s-3.763-.604-4.84-1.813c-1.075-1.211-1.612-2.79-1.612-4.739" fill="#ee7d4f"/><path d="M748.014,127.933c0-5.982-1.41-10.569-4.234-13.761-2.822-3.193-6.552-4.789-11.189-4.789s-8.351,1.596-11.14,4.789c-2.791,3.191-4.187,7.779-4.187,13.761,0,5.916,1.378,10.453,4.134,13.611,2.757,3.158,6.485,4.738,11.192,4.738s8.451-1.58,11.239-4.738c2.79-3.158,4.185-7.694,4.185-13.611M710.359,142.853c-2.184-3.83-3.276-8.467-3.276-13.911,0-5.714,1.11-10.619,3.326-14.721,2.219-4.099,5.244-7.225,9.074-9.376,3.83-2.148,8.201-3.225,13.107-3.225,4.771,0,9.09,1.008,12.954,3.025,3.864,2.016,6.923,4.956,9.173,8.82,2.252,3.864,3.378,8.451,3.378,13.761,0,8.737-2.286,15.46-6.856,20.163-4.57,4.707-10.787,7.058-18.65,7.058-4.974,0-9.378-.976-13.208-2.925-3.83-1.949-6.838-4.84-9.023-8.67" fill="#ee7d4f"/></svg>