<?xml version="1.0" encoding="UTF-8"?><svg id="a" xmlns="http://www.w3.org/2000/svg" viewBox="0 0 841.89 233.716"><path d="M175.878,82.075c2.328-1.557,5.728-2.337,10.199-2.337v8.541c-1.922-.134-3.603-.201-5.044-.201-3.991,0-7.28.368-9.866,1.106.813-3.182,2.383-5.552,4.712-7.109M160.856,107.723h-8.093v-6.18h8.093c.037-3.316.952-5.987,2.744-8.014,1.792-2.026,4.314-3.475,7.567-4.346-.444,2.144-.666,4.655-.666,7.536v4.823h15.188v6.18h-15.188v45.268h-9.645v-45.268Z" fill="#d55d25"/><rect x="76.201" y="85.108" width="11.067" height="67.858" fill="#d55d25"/><path d="M146.976,118.251v34.715h-10.525v-30.487c0-3.474-.96-6.162-2.875-8.063-1.918-1.903-4.685-2.853-8.302-2.853-4.919,0-8.878,1.803-11.881,5.409-3.001,3.604-4.503,9.638-4.503,18.093v17.9h-10.523v-49.172h8.462l1.52,12.784h2.062c1.664-4.655,4.087-8.146,7.27-10.473,3.183-2.327,7.342-3.49,12.476-3.49,4.993,0,9.044,1.376,12.153,4.13,3.111,2.752,4.667,6.589,4.667,11.506" fill="#d55d25"/><path d="M268.076,103.794v49.171h-8.463l-.976-12.981h-2.062c-1.591,4.326-3.943,7.769-7.052,10.326-3.111,2.555-7.016,3.835-11.719,3.835-5.352,0-9.675-1.377-12.966-4.13-3.292-2.755-4.937-6.589-4.937-11.506v-34.715h10.525v31.765c0,3.344.958,5.934,2.875,7.769,1.918,1.836,4.539,2.753,7.866,2.753,3.183,0,6.022-1.033,8.518-3.097,2.495-2.066,4.431-4.935,5.804-8.605,1.376-3.672,2.062-7.769,2.062-12.294v-18.291h10.525Z" fill="#d55d25"/><path d="M285.053,125.035h29.404c-.146-4.654-1.412-8.293-3.799-10.915-2.386-2.623-5.823-3.935-10.307-3.935-4.051,0-7.45,1.296-10.199,3.886-2.75,2.59-4.449,6.245-5.099,10.964M324.764,127.297c0,2.033-.072,3.574-.218,4.623h-39.602c.507,4.589,2.171,8.129,4.992,10.621,2.821,2.49,6.4,3.737,10.741,3.737,3.833,0,6.944-.721,9.332-2.164,2.387-1.442,4.195-3.542,5.424-6.294l8.03,2.359c-1.302,4.328-3.961,7.737-7.976,10.229-4.015,2.492-9.167,3.736-15.461,3.736-8.318,0-14.738-2.18-19.258-6.54-4.521-4.359-6.78-10.408-6.78-18.144,0-5.245,1.048-9.881,3.145-13.914,2.097-4.031,5.155-7.196,9.169-9.49,4.015-2.295,8.733-3.442,14.158-3.442,7.452,0,13.364,2.197,17.741,6.59,4.377,4.391,6.564,10.423,6.564,18.093" fill="#d55d25"/><path d="M451.021,125.035h29.404c-.146-4.654-1.412-8.293-3.799-10.915-2.386-2.623-5.823-3.935-10.307-3.935-4.051,0-7.45,1.296-10.2,3.886-2.749,2.59-4.449,6.245-5.098,10.964M490.732,127.297c0,2.033-.072,3.574-.218,4.623h-39.603c.508,4.589,2.172,8.129,4.993,10.621,2.821,2.49,6.4,3.737,10.741,3.737,3.833,0,6.944-.721,9.332-2.164,2.387-1.442,4.195-3.542,5.424-6.294l8.03,2.359c-1.302,4.328-3.961,7.737-7.976,10.229-4.015,2.492-9.167,3.736-15.461,3.736-8.318,0-14.738-2.18-19.258-6.54-4.521-4.359-6.78-10.408-6.78-18.144,0-5.245,1.048-9.881,3.145-13.914,2.097-4.031,5.155-7.196,9.169-9.49,4.015-2.295,8.733-3.442,14.158-3.442,7.452,0,13.364,2.197,17.741,6.59,4.377,4.391,6.564,10.423,6.564,18.093" fill="#d55d25"/><path d="M379.53,118.251v34.715h-10.525v-30.487c0-3.474-.96-6.162-2.875-8.063-1.918-1.903-4.685-2.853-8.302-2.853-4.919,0-8.878,1.803-11.881,5.409-3.001,3.604-4.503,9.638-4.503,18.093v17.9h-10.523v-49.172h8.462l1.52,12.784h2.062c1.664-4.655,4.087-8.146,7.27-10.473,3.183-2.327,7.342-3.49,12.476-3.49,4.993,0,9.044,1.376,12.153,4.13,3.111,2.752,4.667,6.589,4.667,11.506" fill="#d55d25"/><path d="M385.005,128.379c0-5.508,1.155-10.193,3.471-14.062,2.316-3.868,5.516-6.785,9.603-8.752,4.087-1.968,8.697-2.95,13.834-2.95,6.292,0,11.354,1.163,15.19,3.49,3.833,2.327,6.112,5.721,6.834,10.179l-8.246,2.36c-1.229-5.638-5.714-8.458-13.454-8.458-4.773,0-8.679,1.573-11.717,4.72-3.038,3.146-4.558,7.671-4.558,13.572,0,5.573,1.483,9.914,4.449,13.03,2.967,3.113,6.944,4.67,11.937,4.67,3.327,0,6.202-.721,8.626-2.162,2.423-1.442,4.248-3.508,5.478-6.196l8.03,2.36c-1.302,4.327-3.907,7.736-7.812,10.228-3.907,2.492-8.897,3.737-14.973,3.737-8.101,0-14.576-2.164-19.423-6.492-4.844-4.326-7.268-10.752-7.268-19.275" fill="#d55d25"/><rect x="197.624" y="85.109" width="10.523" height="67.857" fill="#d55d25"/><rect x="577.837" y="103.659" width="10.523" height="49.171" fill="#d55d25"/><path d="M636.695,115.067c-.724-.854-1.864-1.656-3.419-2.41-1.556-.753-3.273-1.13-5.153-1.13-2.967,0-5.642,1.016-8.03,3.048-2.387,2.033-4.248,5.016-5.588,8.95-1.338,3.932-2.008,8.654-2.008,14.16v15.145h-10.523v-49.172h8.462l1.086,15.538h2.061c.724-4.916,2.46-8.932,5.208-12.048,2.75-3.113,6.401-4.67,10.96-4.67,3.904,0,7.124.983,9.655,2.95l-2.711,9.638Z" fill="#d55d25"/><path d="M639.442,128.244c0-5.508,1.155-10.193,3.471-14.062,2.316-3.868,5.516-6.785,9.603-8.752,4.087-1.968,8.697-2.95,13.834-2.95,6.292,0,11.354,1.163,15.19,3.49,3.833,2.327,6.112,5.721,6.834,10.179l-8.246,2.36c-1.229-5.638-5.714-8.458-13.454-8.458-4.773,0-8.679,1.573-11.717,4.72-3.039,3.146-4.558,7.671-4.558,13.572,0,5.573,1.483,9.914,4.449,13.03,2.967,3.113,6.944,4.67,11.937,4.67,3.327,0,6.202-.721,8.626-2.162,2.423-1.442,4.248-3.509,5.478-6.196l8.03,2.36c-1.302,4.327-3.907,7.736-7.812,10.228-3.907,2.492-8.897,3.737-14.973,3.737-8.101,0-14.576-2.164-19.423-6.492-4.844-4.326-7.268-10.752-7.268-19.275" fill="#d55d25"/><path d="M725.978,124.9h29.404c-.146-4.654-1.412-8.293-3.799-10.915-2.386-2.622-5.823-3.934-10.308-3.934-4.051,0-7.449,1.296-10.198,3.886-2.75,2.589-4.449,6.245-5.099,10.964M765.689,127.162c0,2.033-.072,3.574-.218,4.623h-39.602c.507,4.589,2.171,8.129,4.992,10.621,2.821,2.49,6.4,3.737,10.741,3.737,3.833,0,6.944-.721,9.332-2.164,2.387-1.442,4.195-3.542,5.424-6.294l8.03,2.359c-1.302,4.328-3.961,7.736-7.976,10.229-4.014,2.492-9.167,3.736-15.461,3.736-8.318,0-14.738-2.18-19.258-6.54-4.521-4.359-6.78-10.408-6.78-18.144,0-5.245,1.048-9.882,3.145-13.914,2.097-4.032,5.155-7.196,9.169-9.491,4.015-2.294,8.733-3.441,14.158-3.441,7.452,0,13.364,2.197,17.741,6.589,4.376,4.392,6.564,10.424,6.564,18.094" fill="#d55d25"/><rect x="698.207" y="85.305" width="10.523" height="68.706" fill="#d55d25"/><path d="M510.087,138.134c-2.661-5.07-3.993-11.049-3.993-17.939,0-7.084,1.348-13.34,4.043-18.766,2.697-5.427,6.57-9.635,11.62-12.624,5.051-2.991,11.057-4.485,18.019-4.485,9.213,0,16.431,2.193,21.653,6.581,5.221,4.387,8.036,10.48,8.446,18.278l-8.702,1.17c-.478-5.394-2.525-9.666-6.143-12.82-3.617-3.152-8.668-4.727-15.152-4.727-4.709,0-8.805,1.121-12.285,3.363-3.481,2.242-6.126,5.394-7.935,9.455-1.808,4.064-2.713,8.792-2.713,14.186,0,5.2.99,9.731,2.969,13.599,1.979,3.867,4.744,6.841,8.293,8.921,3.549,2.079,7.678,3.12,12.387,3.12,6.279,0,11.057-1.414,14.333-4.242,3.276-2.826,5.494-6.385,6.654-10.675l8.396,2.438c-1.161,5.785-4.198,10.723-9.112,14.818s-12.012,6.143-21.295,6.143c-6.962,0-12.95-1.365-17.967-4.095-5.016-2.73-8.856-6.63-11.518-11.699" fill="#d55d25"/><path d="M575.629,87.962c0-1.514.476-2.753,1.425-3.717.949-.963,2.411-1.445,4.385-1.445,1.823,0,3.226.482,4.215,1.445.986.964,1.48,2.203,1.48,3.717s-.495,2.77-1.48,3.768c-.989.999-2.392,1.497-4.215,1.497-1.975,0-3.436-.482-4.385-1.445-.949-.964-1.425-2.237-1.425-3.821" fill="#d55d25"/></svg>