<?xml version="1.0" encoding="UTF-8"?><svg id="a" xmlns="http://www.w3.org/2000/svg" viewBox="0 0 841.89 233.716"><path d="M207.276,77.645c2.092-1.543,5.145-2.315,9.161-2.315v8.463c-1.726-.134-3.236-.2-4.531-.2-3.583,0-6.538.366-8.86,1.095.731-3.153,2.14-5.5,4.231-7.044M193.785,103.058h-7.268v-6.123h7.268c.033-3.286.855-5.933,2.464-7.941,1.609-2.007,3.874-3.443,6.795-4.306-.399,2.125-.597,4.614-.597,7.468v4.779h13.639v6.123h-13.639v44.853h-8.662v-44.853Z" fill="#fff"/><rect x="117.759" y="80.65" width="9.938" height="67.235" fill="#fff"/><path d="M181.321,113.489v34.396h-9.453v-30.207c0-3.443-.861-6.105-2.582-7.99-1.721-1.884-4.207-2.826-7.455-2.826-4.416,0-7.972,1.787-10.669,5.359-2.695,3.572-4.044,9.55-4.044,17.928v17.735h-9.45v-48.719h7.598l1.364,12.665h1.851c1.495-4.611,3.671-8.07,6.53-10.377,2.859-2.305,6.593-3.457,11.205-3.457,4.484,0,8.122,1.363,10.913,4.092,2.794,2.727,4.191,6.528,4.191,11.4" fill="#fff"/><path d="M290.077,99.165v48.721h-7.602l-.875-12.863h-1.851c-1.43,4.287-3.541,7.699-6.333,10.232-2.794,2.532-6.3,3.798-10.525,3.798-4.806,0-8.689-1.364-11.644-4.091-2.956-2.73-4.433-6.53-4.433-11.402v-34.396h9.451v31.473c0,3.313.86,5.879,2.582,7.697,1.722,1.82,4.077,2.728,7.064,2.728,2.859,0,5.409-1.023,7.65-3.069,2.241-2.046,3.979-4.889,5.211-8.526,1.237-3.637,1.851-7.697,1.851-12.181v-18.123h9.453Z" fill="#fff"/><path d="M305.323,120.212h26.407c-.13-4.611-1.268-8.218-3.412-10.815-2.142-2.598-5.229-3.897-9.256-3.897-3.638,0-6.69,1.284-9.159,3.849-2.469,2.566-3.996,6.189-4.579,10.864M340.986,122.453c0,2.015-.064,3.541-.196,4.581h-35.566c.457,4.546,1.95,8.054,4.484,10.523,2.535,2.467,5.749,3.703,9.646,3.703,3.443,0,6.236-.713,8.381-2.144,2.144-1.429,3.767-3.509,4.872-6.236l7.21,2.338c-1.169,4.287-3.556,7.664-7.163,10.133-3.605,2.469-8.232,3.703-13.885,3.703-7.47,0-13.236-2.159-17.296-6.479-4.059-4.319-6.088-10.312-6.088-17.978,0-5.197.941-9.791,2.824-13.787,1.884-3.995,4.63-7.13,8.235-9.403,3.605-2.274,7.844-3.41,12.715-3.41,6.692,0,12.002,2.177,15.932,6.528,3.93,4.352,5.895,10.33,5.895,17.928" fill="#fff"/><path d="M454.374,120.212h26.407c-.13-4.611-1.268-8.218-3.412-10.815-2.142-2.598-5.229-3.897-9.256-3.897-3.638,0-6.69,1.284-9.159,3.849-2.469,2.566-3.996,6.189-4.579,10.864M490.037,122.453c0,2.015-.064,3.541-.196,4.581h-35.566c.456,4.546,1.95,8.054,4.484,10.523,2.535,2.467,5.749,3.703,9.646,3.703,3.443,0,6.236-.713,8.381-2.144,2.144-1.429,3.767-3.509,4.872-6.236l7.21,2.338c-1.169,4.287-3.556,7.664-7.163,10.133-3.605,2.469-8.232,3.703-13.885,3.703-7.47,0-13.236-2.159-17.296-6.479-4.059-4.319-6.088-10.312-6.088-17.978,0-5.197.941-9.791,2.824-13.787,1.884-3.995,4.63-7.13,8.235-9.403,3.605-2.274,7.844-3.41,12.715-3.41,6.692,0,12.002,2.177,15.932,6.528,3.93,4.352,5.895,10.33,5.895,17.928" fill="#fff"/><path d="M390.17,113.489v34.396h-9.453v-30.207c0-3.443-.861-6.105-2.582-7.99-1.721-1.884-4.207-2.826-7.455-2.826-4.416,0-7.972,1.787-10.669,5.359-2.695,3.572-4.044,9.55-4.044,17.928v17.735h-9.45v-48.719h7.598l1.364,12.665h1.851c1.495-4.611,3.671-8.07,6.53-10.377,2.859-2.305,6.593-3.457,11.205-3.457,4.484,0,8.12,1.363,10.913,4.092,2.794,2.727,4.191,6.528,4.191,11.4" fill="#fff"/><path d="M395.087,123.525c0-5.456,1.037-10.1,3.116-13.933,2.081-3.833,4.955-6.723,8.625-8.672,3.671-1.95,7.812-2.923,12.425-2.923,5.651,0,10.198,1.154,13.641,3.459,3.442,2.305,5.489,5.669,6.137,10.085l-7.405,2.338c-1.103-5.587-5.131-8.379-12.082-8.379-4.286,0-7.795,1.557-10.523,4.677-2.728,3.118-4.094,7.602-4.094,13.448,0,5.521,1.333,9.824,3.996,12.91,2.664,3.085,6.236,4.628,10.719,4.628,2.988,0,5.57-.715,7.746-2.144,2.177-1.429,3.816-3.476,4.92-6.138l7.21,2.338c-1.169,4.287-3.508,7.664-7.015,10.133-3.508,2.469-7.99,3.703-13.448,3.703-7.275,0-13.089-2.144-17.443-6.431-4.35-4.287-6.527-10.653-6.527-19.099" fill="#fff"/><rect x="226.805" y="80.65" width="9.45" height="67.235" fill="#fff"/><polygon points="510.911 81.244 510.911 149.367 555.923 149.367 555.923 140.579 520.979 140.579 520.979 81.244 510.911 81.244" fill="#ee7d4f"/><path d="M584.069,126.659c-5.263,0-9.327.74-12.19,2.222-2.863,1.48-4.292,3.734-4.292,6.762,0,2.106.74,3.784,2.221,5.034,1.48,1.253,3.536,1.876,6.168,1.876,9.608,0,15.005-5.133,16.188-15.401-3.291-.33-5.988-.493-8.095-.493M607.168,149.761c-1.383.525-2.697.789-3.949.789-2.893,0-5.148-.822-6.761-2.467-1.612-1.645-2.417-4.147-2.417-7.504,0-1.447.13-2.863.394-4.243h-1.974c-1.119,4.87-3.094,8.455-5.923,10.76-2.83,2.304-6.679,3.454-11.549,3.454-5.397,0-9.64-1.366-12.734-4.095-3.093-2.731-4.639-6.27-4.639-10.614,0-5.397,2.189-9.461,6.564-12.192,4.375-2.731,10.184-4.097,17.422-4.097,3.423,0,7.009.295,10.759.888v-4.047c0-6.648-3.979-9.973-11.944-9.973-3.552,0-6.333.808-8.34,2.42-2.008,1.612-3.439,4.031-4.293,7.256l-7.8-2.368c.66-4.74,2.929-8.409,6.811-11.009,3.883-2.599,8.851-3.899,14.906-3.899,6.186,0,11.104,1.48,14.757,4.443,3.652,2.961,5.478,7.141,5.478,12.536v20.831c0,2.041.28,3.637.839,4.788.559,1.152,1.399,1.729,2.518,1.729.789,0,1.711-.328,2.764-.989l2.269,5.925c-.723.592-1.776,1.152-3.159,1.678" fill="#ee7d4f"/><path d="M654.404,124.192c0-5.661-1.282-10.037-3.849-13.13-2.568-3.094-5.923-4.641-10.069-4.641-4.54,0-8.291,1.597-11.252,4.787-2.961,3.193-4.443,7.719-4.443,13.577,0,5.461,1.364,9.773,4.097,12.932,2.73,3.159,6.53,4.738,11.4,4.738,4.41,0,7.866-1.579,10.364-4.738,2.502-3.159,3.751-7.668,3.751-13.525M661.511,110.419c1.909,3.85,2.863,8.442,2.863,13.773,0,5.857-1.004,10.76-3.011,14.71-2.005,3.948-4.671,6.877-7.994,8.785-3.324,1.909-6.992,2.865-11.007,2.865-9.871,0-15.99-4.74-18.359-14.216h-1.876l-1.185,13.031h-7.697v-69.602h9.572v14.513c0,6.45-.163,12.638-.492,18.56h1.875c1.447-4.672,3.8-8.178,7.058-10.514,3.258-2.337,7.091-3.505,11.499-3.505,4.081,0,7.749.97,11.007,2.914,3.256,1.941,5.84,4.837,7.748,8.686" fill="#ee7d4f"/><path d="M667.273,136.828l7.501-2.368c1.053,5.395,5.659,8.093,13.82,8.093,3.355,0,6.085-.624,8.192-1.876,2.106-1.249,3.159-3.126,3.159-5.626,0-1.843-.544-3.275-1.63-4.293-1.086-1.022-2.697-1.777-4.836-2.271-2.14-.495-5.183-.938-9.131-1.333-5.266-.594-9.41-1.909-12.439-3.951-3.027-2.038-4.54-5.364-4.54-9.97,0-4.278,1.744-7.749,5.232-10.415,3.487-2.667,8.423-4,14.807-4,5.988,0,10.743,1.169,14.263,3.505,3.522,2.335,5.609,5.744,6.267,10.218l-7.501,2.37c-1.119-5.661-5.496-8.491-13.127-8.491-3.424,0-6.105.544-8.046,1.63-1.941,1.086-2.912,2.683-2.912,4.787,0,1.777.691,3.127,2.073,4.048,1.381.921,3.027,1.529,4.936,1.826,1.908.297,4.705.61,8.39.938,5.395.526,9.623,1.859,12.684,4,3.06,2.137,4.589,5.676,4.589,10.611,0,5.134-1.941,9.134-5.824,11.996-3.882,2.863-8.75,4.295-14.608,4.295-6.055,0-10.957-1.168-14.71-3.505-3.75-2.337-5.955-5.742-6.611-10.218" fill="#ee7d4f"/></svg>