<?xml version="1.0" encoding="UTF-8"?><svg id="a" xmlns="http://www.w3.org/2000/svg" viewBox="0 0 841.89 428.62"><path d="M270.416,86.524c3.69-2.724,9.079-4.085,16.167-4.085v14.934c-3.045-.233-5.713-.352-7.997-.352-6.324,0-11.537.645-15.636,1.934,1.29-5.565,3.778-9.707,7.466-12.431M246.609,131.372h-12.826v-10.806h12.826c.059-5.798,1.508-10.469,4.349-14.011,2.841-3.545,6.838-6.077,11.991-7.599-.702,3.747-1.054,8.142-1.054,13.176v8.434h24.071v10.806h-24.071v79.155h-15.287v-79.155Z" fill="#2a2c52"/><rect x="112.443" y="91.828" width="17.54" height="118.652" fill="#2a2c52"/><path d="M224.612,149.78v60.701h-16.681v-53.309c0-6.074-1.52-10.773-4.556-14.097-3.038-3.329-7.426-4.989-13.157-4.989-7.794,0-14.071,3.155-18.829,9.46-4.756,6.303-7.135,16.852-7.135,31.639v31.296h-16.678v-85.978h13.409l2.41,22.353h3.267c2.636-8.139,6.476-14.244,11.52-18.313,5.046-4.068,11.637-6.103,19.774-6.103,7.913,0,14.333,2.405,19.26,7.221,4.932,4.813,7.397,11.523,7.397,20.119" fill="#2a2c52"/><path d="M416.539,124.502v85.981h-13.414l-1.546-22.7h-3.267c-2.522,7.566-6.248,13.585-11.175,18.056-4.932,4.468-11.121,6.707-18.572,6.707-8.484,0-15.334-2.41-20.552-7.223-5.215-4.816-7.823-11.52-7.823-20.119v-60.701h16.681v55.543c0,5.846,1.518,10.376,4.556,13.585,3.038,3.21,7.195,4.813,12.467,4.813,5.044,0,9.543-1.806,13.5-5.415,3.954-3.614,7.021-8.629,9.198-15.046,2.179-6.419,3.267-13.585,3.267-21.496v-31.984h16.681Z" fill="#2a2c52"/><path d="M443.446,161.645h46.6c-.231-8.137-2.236-14.501-6.019-19.086-3.781-4.585-9.229-6.878-16.336-6.878-6.419,0-11.808,2.265-16.165,6.793-4.356,4.528-7.05,10.921-8.08,19.172M506.382,165.599c0,3.555-.114,6.248-.345,8.085h-62.764c.804,8.023,3.44,14.214,7.911,18.572,4.473,4.354,10.145,6.533,17.023,6.533,6.074,0,11.006-1.261,14.789-3.783,3.783-2.522,6.648-6.193,8.596-11.006l12.727,4.126c-2.063,7.568-6.276,13.528-12.641,17.885-6.362,4.359-14.528,6.536-24.504,6.536-13.183,0-23.357-3.814-30.523-11.437-7.164-7.621-10.745-18.199-10.745-31.727,0-9.17,1.661-17.278,4.984-24.33,3.324-7.05,8.17-12.584,14.532-16.595,6.362-4.011,13.842-6.017,22.439-6.017,11.811,0,21.18,3.84,28.118,11.523,6.935,7.678,10.402,18.227,10.402,31.637" fill="#2a2c52"/><path d="M706.484,161.645h46.6c-.231-8.137-2.236-14.501-6.019-19.086-3.781-4.585-9.229-6.878-16.336-6.878-6.419,0-11.808,2.265-16.165,6.793-4.356,4.528-7.05,10.921-8.08,19.172M769.419,165.599c0,3.555-.114,6.248-.345,8.085h-62.764c.804,8.023,3.44,14.214,7.911,18.572,4.473,4.354,10.145,6.533,17.023,6.533,6.074,0,11.006-1.261,14.789-3.783,3.783-2.522,6.648-6.193,8.596-11.006l12.727,4.126c-2.063,7.568-6.276,13.528-12.641,17.885-6.362,4.359-14.528,6.536-24.504,6.536-13.183,0-23.357-3.814-30.523-11.437-7.164-7.621-10.745-18.199-10.745-31.727,0-9.17,1.661-17.278,4.984-24.33,3.324-7.05,8.168-12.584,14.532-16.595,6.362-4.011,13.842-6.017,22.439-6.017,11.81,0,21.18,3.84,28.118,11.523,6.935,7.678,10.402,18.227,10.402,31.637" fill="#2a2c52"/><path d="M593.179,149.78v60.701h-16.681v-53.309c0-6.074-1.52-10.773-4.556-14.097-3.038-3.329-7.426-4.989-13.157-4.989-7.794,0-14.071,3.155-18.829,9.46-4.756,6.303-7.135,16.852-7.135,31.639v31.296h-16.678v-85.978h13.409l2.41,22.353h3.267c2.636-8.139,6.476-14.244,11.52-18.313,5.046-4.068,11.637-6.103,19.774-6.103,7.913,0,14.333,2.405,19.26,7.221,4.932,4.813,7.397,11.523,7.397,20.119" fill="#2a2c52"/><path d="M601.855,167.491c0-9.629,1.832-17.825,5.501-24.589,3.669-6.762,8.744-11.865,15.22-15.303,6.476-3.44,13.785-5.158,21.925-5.158,9.974,0,17.997,2.034,24.073,6.103,6.077,4.069,9.688,10.005,10.833,17.799l-13.069,4.126c-1.949-9.857-9.055-14.789-21.323-14.789-7.564,0-13.757,2.75-18.57,8.256-4.816,5.501-7.223,13.414-7.223,23.73,0,9.745,2.351,17.337,7.05,22.784,4.701,5.446,11.006,8.168,18.917,8.168,5.272,0,9.831-1.261,13.671-3.781,3.84-2.524,6.733-6.136,8.682-10.835l12.727,4.126c-2.063,7.568-6.191,13.528-12.382,17.885-6.191,4.356-14.099,6.533-23.731,6.533-12.841,0-23.1-3.783-30.782-11.349-7.678-7.564-11.518-18.801-11.518-33.704" fill="#2a2c52"/><rect x="304.882" y="91.828" width="16.678" height="118.652" fill="#2a2c52"/><path d="M302.428,294.378c-1.147-1.492-2.953-2.896-5.42-4.214-2.465-1.318-5.187-1.977-8.166-1.977-4.701,0-8.941,1.777-12.727,5.329-3.783,3.555-6.733,8.77-8.856,15.651-2.12,6.876-3.181,15.132-3.181,24.761v26.481h-16.678v-85.978h13.412l1.72,27.168h3.267c1.147-8.596,3.897-15.617,8.254-21.066,4.359-5.444,10.145-8.166,17.368-8.166,6.191,0,11.292,1.718,15.303,5.158l-4.297,16.852Z" fill="#2a2c52"/><path d="M306.781,317.419c0-9.631,1.832-17.825,5.501-24.589,3.669-6.762,8.744-11.865,15.22-15.303,6.476-3.44,13.785-5.158,21.925-5.158,9.974,0,17.997,2.034,24.073,6.103,6.077,4.068,9.688,10.005,10.833,17.799l-13.069,4.126c-1.949-9.857-9.055-14.789-21.323-14.789-7.564,0-13.757,2.75-18.57,8.256-4.816,5.501-7.223,13.414-7.223,23.73,0,9.745,2.351,17.337,7.05,22.784,4.701,5.446,11.006,8.168,18.917,8.168,5.272,0,9.831-1.261,13.671-3.781,3.84-2.524,6.733-6.136,8.682-10.835l12.727,4.126c-2.063,7.568-6.191,13.528-12.382,17.885-6.191,4.356-14.099,6.533-23.73,6.533-12.841,0-23.1-3.783-30.783-11.349-7.678-7.566-11.518-18.801-11.518-33.704" fill="#2a2c52"/><path d="M443.931,311.572h46.6c-.231-8.137-2.236-14.501-6.019-19.086-3.781-4.585-9.229-6.881-16.336-6.881-6.419,0-11.808,2.267-16.165,6.795s-7.05,10.921-8.08,19.172M506.866,315.527c0,3.555-.114,6.248-.345,8.085h-62.764c.804,8.023,3.44,14.214,7.911,18.572,4.471,4.354,10.145,6.533,17.023,6.533,6.074,0,11.006-1.261,14.789-3.783,3.783-2.522,6.648-6.193,8.596-11.006l12.727,4.126c-2.063,7.568-6.276,13.528-12.641,17.885-6.362,4.359-14.528,6.536-24.504,6.536-13.183,0-23.357-3.814-30.523-11.437-7.164-7.621-10.745-18.199-10.745-31.727,0-9.17,1.661-17.278,4.984-24.33,3.324-7.05,8.168-12.584,14.532-16.595,6.362-4.011,13.84-6.017,22.439-6.017,11.811,0,21.18,3.84,28.115,11.523,6.938,7.678,10.404,18.227,10.404,31.637" fill="#2a2c52"/><rect x="399.916" y="242.333" width="16.676" height="120.139" fill="#2a2c52"/><path d="M101.771,334.711c-4.218-8.867-6.329-19.319-6.329-31.368,0-12.389,2.139-23.326,6.41-32.814,4.273-9.488,10.412-16.847,18.415-22.075,8.004-5.23,17.523-7.842,28.558-7.842,14.601,0,26.041,3.833,34.316,11.508,8.277,7.671,12.738,18.322,13.386,31.958l-13.79,2.049c-.757-9.434-4.002-16.904-9.736-22.417-5.734-5.513-13.738-8.265-24.014-8.265-7.464,0-13.954,1.958-19.469,5.879-5.517,3.921-9.71,9.434-12.577,16.533-2.865,7.104-4.299,15.375-4.299,24.806,0,9.093,1.568,17.016,4.706,23.78,3.136,6.762,7.518,11.96,13.143,15.598,5.625,3.635,12.167,5.453,19.631,5.453,9.952,0,17.523-2.472,22.717-7.416,5.191-4.942,8.708-11.163,10.545-18.665l13.307,4.261c-1.839,10.117-6.652,18.751-14.442,25.912-7.787,7.159-19.036,10.74-33.749,10.74-11.033,0-20.523-2.389-28.475-7.161-7.949-4.773-14.035-11.592-18.253-20.454" fill="#2a2c52"/><rect x="208.966" y="276.597" width="16.117" height="84.356" fill="#2a2c52"/><path d="M208.194,249.526c0-2.572.721-4.675,2.16-6.312s3.655-2.455,6.65-2.455c2.765,0,4.892.818,6.391,2.455,1.494,1.637,2.246,3.74,2.246,6.312s-.752,4.704-2.246,6.4c-1.499,1.696-3.626,2.543-6.391,2.543-2.995,0-5.211-.818-6.65-2.455s-2.16-3.797-2.16-6.488" fill="#2a2c52"/></svg>