<?xml version="1.0" encoding="UTF-8"?><svg id="a" xmlns="http://www.w3.org/2000/svg" viewBox="0 0 404.44 349.781"><path d="M238.925,209.711c-6.507,18.769-19.024,34.239-34.948,44.555-23.919-15.542-39.773-42.504-39.773-73.099s15.839-57.534,39.743-73.078c17.519,11.353,30.89,28.895,36.673,50.002l.306,1.118,97.447-1.209-.546-1.892c-11.062-38.294-46.651-65.04-86.547-65.04-17.353,0-33.573,4.933-47.337,13.471-13.894-8.59-30.176-13.471-47.312-13.471-49.668,0-90.076,40.418-90.076,90.099s40.408,90.101,90.076,90.101c17.129,0,33.428-4.853,47.344-13.451,13.756,8.524,29.968,13.451,47.305,13.451,38.227,0,72.398-24.231,85.032-60.296l.696-1.99-97.732-.283-.351,1.012ZM251.28,94.067c37.907,0,71.793,24.975,83.095,60.981l-91.176,1.131c-6.007-20.866-19.215-38.283-36.453-49.837,13.038-7.793,28.272-12.275,44.534-12.275ZM156.631,268.267c-48.014,0-87.076-39.073-87.076-87.101s39.062-87.099,87.076-87.099c16.063,0,31.354,4.438,44.513,12.279-24.07,16.191-39.94,43.688-39.94,74.82s15.883,58.652,39.97,74.841c-13.18,7.848-28.484,12.26-44.542,12.26ZM332.756,211.969c-12.756,33.761-45.23,56.298-81.477,56.298-16.247,0-31.471-4.475-44.501-12.256,15.631-10.474,27.964-25.806,34.623-44.307l91.354.264Z" fill="#d45d24"/></svg>