<?xml version="1.0" encoding="UTF-8"?><svg id="a" xmlns="http://www.w3.org/2000/svg" viewBox="0 0 404.44 349.781"><rect x="79.964" y="75.224" width="244.512" height="5.137" fill="#d55d23"/><path d="M79.963,260.552v26.558c32.451-24.479,75.935-37.964,122.682-37.964,46.343,0,89.469,13.264,121.831,37.341v-26.391c-34.654-19.332-76.906-29.793-121.831-29.793-45.288,0-87.871,10.615-122.682,30.248Z" fill="#d55d23"/><path d="M79.964,206.812v18.053c75.969-32.469,168.436-32.606,244.512-.389v-17.999c-37.683-14.02-79.36-21.393-121.828-21.388-42.786.003-84.775,7.489-122.685,21.723Z" fill="#d55d23"/><path d="M79.964,155.52v12.556c80.189-16.671,164.298-16.727,244.512-.178v-12.548c-80.323-15.819-164.212-15.762-244.512.17Z" fill="#d55d23"/><path d="M79.964,113.443v8.678c81.185-8.459,163.322-8.487,244.512-.087v-8.678c-81.2-8.261-163.317-8.23-244.512.087Z" fill="#d55d23"/></svg>